<svg width="200" height="110" viewBox="0 0 200 110" fill="none" xmlns="http://www.w3.org/2000/svg">
<path fill-rule="evenodd" clip-rule="evenodd" d="M64.5102 17.3273H80.7852V32.6429H64.5102V17.3273ZM74.7646 19.4598C74.6947 19.4442 74.617 19.4364 74.5471 19.4209L74.4577 19.4093C74.3334 19.3899 74.2091 19.3783 74.081 19.3666C73.9916 19.355 73.9062 19.3511 73.8207 19.3472C73.6615 19.3355 73.5139 19.3315 73.3702 19.3315C73.3002 19.3315 73.2614 19.3315 73.1954 19.3315C73.0711 19.3354 72.9507 19.3432 72.8341 19.351C72.7681 19.3549 72.7021 19.3588 72.6361 19.3666C72.5389 19.3744 72.4457 19.3821 72.3486 19.3977L72.2709 19.4055L72.1777 19.4209L72.0728 19.4403C72.0262 19.4442 71.9796 19.4519 71.9369 19.4636C71.8669 19.4713 71.8048 19.487 71.7465 19.4987C71.3581 19.5841 71.0008 19.6889 70.6745 19.8171C70.5036 19.8831 70.3366 19.9569 70.1851 20.0307C70.053 20.0967 69.9326 20.1627 69.8083 20.2327C69.6957 20.2987 69.583 20.3647 69.4742 20.4346C69.416 20.4812 69.3538 20.5163 69.2917 20.5629C69.2412 20.6017 69.1946 20.6329 69.1441 20.6717C69.0392 20.7494 68.9421 20.8348 68.845 20.9164C68.7596 20.9941 68.678 21.0717 68.5964 21.1494C68.5304 21.2116 68.4566 21.2815 68.3983 21.363C68.3284 21.4329 68.2624 21.5068 68.2041 21.5845C68.1303 21.666 68.072 21.7515 68.0099 21.8369C67.9555 21.903 67.9128 21.969 67.8701 22.0389C67.8351 22.0855 67.8079 22.1322 67.7846 22.1788C67.6098 22.4546 67.4661 22.7537 67.3379 23.0683C67.1865 23.4645 67.0777 23.8916 67.0155 24.3383C67 24.4859 66.9884 24.6298 66.9767 24.7774C66.9689 24.89 66.965 25.0065 66.965 25.123C66.965 25.2124 66.965 25.2978 66.9689 25.3793C66.9767 25.4687 66.9884 25.558 66.9961 25.6434L67 25.7055C67.0155 25.8104 67.0311 25.9155 67.0505 26.0126C67.0583 26.0514 67.066 26.0901 67.0738 26.129C67.0893 26.2144 67.1127 26.2961 67.1282 26.3777C67.1593 26.4825 67.1903 26.5836 67.2253 26.6885C67.268 26.8128 67.3146 26.933 67.3612 27.0495C67.4389 27.2399 67.5282 27.4187 67.6176 27.5896C67.672 27.6867 67.7302 27.7836 67.7846 27.8807C67.8351 27.9506 67.8817 28.0246 67.9283 28.0946C67.9905 28.1878 68.0565 28.2732 68.1225 28.3587C68.1886 28.448 68.2623 28.5257 68.3361 28.6111C68.4177 28.7082 68.5071 28.8015 68.5925 28.8831L68.6314 28.9295C68.7091 28.9956 68.7829 29.0695 68.8683 29.1472C68.9266 29.1938 68.9887 29.2482 69.0586 29.2987C69.1169 29.3492 69.1868 29.3997 69.2529 29.4502C69.3383 29.5084 69.4199 29.5666 69.5092 29.6249C69.6141 29.6831 69.7151 29.7491 69.8199 29.8112C70.0336 29.9316 70.2744 30.0482 70.5347 30.1531C70.6318 30.1919 70.7328 30.2269 70.8377 30.2619C70.9425 30.3007 71.0474 30.3317 71.1562 30.3667C71.3465 30.4172 71.5446 30.4638 71.7465 30.5066C71.9136 30.5376 72.0922 30.5649 72.2709 30.5843C72.4457 30.6076 72.6322 30.6271 72.8186 30.6348C72.9157 30.6387 73.0089 30.6387 73.1021 30.6464H73.2381C73.5799 30.6464 73.8946 30.6309 74.1859 30.6076L74.2441 30.6038C74.3645 30.596 74.4733 30.5804 74.582 30.5649C74.7529 30.5455 74.9083 30.5221 75.0598 30.4949C75.1569 30.4794 75.2501 30.4562 75.3395 30.4407C75.4832 30.4096 75.6153 30.3745 75.7435 30.3435C75.8367 30.3201 75.926 30.2929 76.0153 30.2657C76.1202 30.2346 76.2173 30.1997 76.3144 30.1647L76.4076 30.1377C76.4542 30.1183 76.5164 30.0949 76.5902 30.0677C76.6873 30.0289 76.8077 29.9821 76.9398 29.9238C77.0253 29.8889 77.1107 29.8501 77.2001 29.8112C77.2739 29.7724 77.3632 29.7298 77.4486 29.6948C77.4797 29.6754 77.5185 29.656 77.5574 29.6443V27.5507C77.5302 27.5662 77.503 27.5855 77.4797 27.5972L77.336 27.6828C77.1922 27.7721 77.0563 27.8497 76.9204 27.9274C76.7689 28.009 76.6174 28.0829 76.4659 28.1567C76.2134 28.281 75.961 28.3818 75.724 28.4672C75.2696 28.6304 74.8501 28.7276 74.4849 28.7975C74.4383 28.8053 74.3956 28.813 74.3529 28.8169C74.2519 28.8325 74.1548 28.848 74.0577 28.8558C73.914 28.8713 73.778 28.8791 73.6615 28.8869C73.5799 28.8869 73.51 28.8947 73.4362 28.8947C73.2886 28.8947 73.1371 28.8868 72.9779 28.879C72.7953 28.8635 72.6166 28.8403 72.4263 28.8131C72.1233 28.7626 71.8203 28.6848 71.529 28.5761C71.4785 28.5644 71.4358 28.545 71.3931 28.5256C71.3659 28.5178 71.3387 28.5024 71.3076 28.4907C71.261 28.4713 71.2144 28.4519 71.1639 28.4286C71.0591 28.382 70.958 28.3275 70.857 28.2693C70.8104 28.2421 70.7638 28.2109 70.7133 28.1837C70.6667 28.1526 70.6162 28.1215 70.5657 28.0827C70.5075 28.0439 70.4453 27.9974 70.3909 27.9547C70.3288 27.9081 70.2744 27.8574 70.22 27.8186L70.154 27.7565L70.119 27.7254L70.0996 27.706L70.0724 27.6828C69.9792 27.5895 69.8938 27.4924 69.8122 27.3992C69.7733 27.3487 69.7306 27.2943 69.6879 27.2399C69.6529 27.1894 69.6179 27.139 69.583 27.0846C69.548 27.038 69.5209 26.9874 69.4937 26.9369C69.4471 26.8631 69.4082 26.7932 69.3694 26.7155C69.3422 26.6572 69.315 26.5913 69.2878 26.5291C69.2412 26.4282 69.2062 26.3193 69.1752 26.2183C69.148 26.1445 69.1247 26.0591 69.1053 25.9853C69.0548 25.7717 69.0237 25.5697 69.0081 25.3988C68.9965 25.3327 68.9965 25.2745 68.9926 25.2162C68.9887 25.1346 68.9887 25.0647 68.9887 25.0064V24.8744C68.9926 24.7539 69.0081 24.6024 69.0314 24.4315C69.0431 24.3266 69.0664 24.2141 69.0975 24.0937C69.113 24.016 69.1324 23.9384 69.1596 23.8568C69.1868 23.783 69.2101 23.7091 69.2412 23.6276C69.2567 23.5771 69.2801 23.5266 69.3034 23.4761C69.3344 23.4062 69.3694 23.3324 69.4044 23.2625C69.4315 23.2081 69.4626 23.1537 69.4976 23.0994C69.5636 22.9828 69.6413 22.8663 69.7306 22.7459C69.7617 22.7032 69.7928 22.6604 69.8277 22.6176C69.8743 22.5671 69.9171 22.5127 69.9676 22.4583C69.9948 22.435 70.018 22.408 70.0452 22.3808C70.4259 21.9963 70.857 21.7088 71.2998 21.5107C71.3736 21.4797 71.4436 21.4485 71.5135 21.4213C71.5834 21.3942 71.6533 21.3669 71.7271 21.3436C71.8009 21.3164 71.8786 21.2931 71.9563 21.2736C72.0301 21.2503 72.1078 21.231 72.1777 21.2115C72.2515 21.196 72.3292 21.1844 72.3991 21.1689C72.4807 21.1572 72.5583 21.1415 72.6399 21.1338C72.7215 21.1221 72.7992 21.1144 72.8808 21.1105C73.0361 21.095 73.1799 21.0873 73.3236 21.0873C73.378 21.0873 73.4246 21.0872 73.4751 21.0911C73.5838 21.0911 73.6848 21.095 73.7897 21.0989C73.8635 21.1106 73.9334 21.1107 74.0033 21.1146C74.1276 21.1301 74.2596 21.1456 74.38 21.1651C74.4849 21.1806 74.5937 21.196 74.6869 21.2115C74.8384 21.2465 74.9743 21.2816 75.1025 21.3166C75.1763 21.3321 75.2502 21.3552 75.3162 21.3746C75.4172 21.4096 75.5026 21.4329 75.5725 21.4562C75.6852 21.4989 75.7551 21.5183 75.7551 21.5183C75.8522 21.5533 75.957 21.6 76.0541 21.635C76.1901 21.6932 76.3144 21.7438 76.4387 21.8021C76.5359 21.8487 76.633 21.8952 76.7223 21.9379C76.8 21.9729 76.8699 22.0116 76.932 22.0427C77.0486 22.1049 77.1457 22.1593 77.2233 22.202L77.437 22.3187V20.2637C77.437 20.2637 77.3088 20.2133 77.0874 20.1279C76.9903 20.0929 76.8737 20.0502 76.7417 20.0036C76.6679 19.9764 76.5902 19.9493 76.5086 19.9221C76.4465 19.9027 76.3805 19.8754 76.3105 19.8559C76.229 19.8287 76.1513 19.8016 76.0697 19.7744C76.0076 19.7588 75.9454 19.7395 75.8794 19.7201L75.825 19.7044C75.7668 19.6889 75.7007 19.6734 75.6463 19.6539C75.5648 19.6384 75.491 19.6151 75.4133 19.5918C75.3667 19.5841 75.3162 19.5763 75.2657 19.5608C75.1841 19.5414 75.1064 19.522 75.0171 19.5065C74.9355 19.491 74.8501 19.4714 74.7646 19.4598Z" fill="white"/>
<path fill-rule="evenodd" clip-rule="evenodd" d="M52.0037 25.796V28.8063H53.9575C53.9575 28.8063 53.9963 28.8024 54.0546 28.8024C54.1245 28.7985 54.2177 28.7907 54.3343 28.7868C54.5401 28.7635 54.8237 28.7247 55.0956 28.6315C55.3403 28.5538 55.5772 28.4295 55.7598 28.2469C55.8297 28.1731 55.888 28.0993 55.9385 28.0255C56.0861 27.7847 56.1288 27.54 56.1366 27.404C56.1404 27.338 56.1404 27.3069 56.1404 27.3069C56.1404 27.3069 56.1404 27.2759 56.1404 27.2331C56.1404 27.1749 56.1327 27.0622 56.1016 26.9418C56.0628 26.7981 55.9967 26.635 55.8763 26.4796C55.8491 26.4524 55.8219 26.4252 55.7947 26.398C55.7443 26.3436 55.6821 26.2893 55.62 26.2427C55.5112 26.165 55.3908 26.0989 55.2587 26.0407C55.0839 25.963 54.8858 25.9086 54.6644 25.8659C54.5596 25.8465 54.4391 25.827 54.3226 25.8193C54.2449 25.8076 54.175 25.8076 54.0973 25.7999C54.0274 25.796 53.9614 25.796 53.8876 25.796H52.0037Z" fill="white"/>
<path fill-rule="evenodd" clip-rule="evenodd" d="M52.0037 21.2156V24.0705H52.9476C52.9476 24.0705 53.0097 24.0705 53.0952 24.0666C53.1651 24.0666 53.235 24.0628 53.3088 24.055C53.503 24.0433 53.7749 24.0161 54.0391 23.9423C54.0973 23.9268 54.1478 23.9074 54.1944 23.8919C54.4081 23.8142 54.6101 23.7093 54.7732 23.5539C54.8975 23.4296 54.9752 23.2898 55.0296 23.1577C55.0995 22.9946 55.1228 22.8392 55.1344 22.7305C55.1383 22.6256 55.1383 22.5673 55.1383 22.5673C55.1383 22.5673 55.1383 22.5207 55.1383 22.443C55.1344 22.3226 55.1072 22.1167 55.0062 21.9264C54.9596 21.8332 54.8975 21.74 54.8043 21.6545C54.6994 21.5535 54.5751 21.4681 54.4353 21.4059C54.1672 21.2894 53.8604 21.2428 53.6079 21.2273C53.4914 21.2195 53.3904 21.2156 53.3049 21.2156H52.0037Z" fill="white"/>
<path fill-rule="evenodd" clip-rule="evenodd" d="M45.757 17.3273H62.0321V32.6429H45.757V17.3273ZM50.0258 19.4714V30.5066H54.1781C54.1781 30.5066 56.2056 30.5571 57.3204 29.4423C58.2332 28.5334 58.1672 27.477 58.1672 27.477C58.1672 27.477 58.2332 26.3816 57.3904 25.5348C56.6679 24.8201 55.7551 24.6259 55.7551 24.6259C55.7551 24.6259 56.1668 24.4355 56.4892 24.1131C56.6368 23.9655 57.1651 23.4877 57.1651 22.3263C57.1651 21.1571 56.3882 20.4813 56.3882 20.4813C56.3882 20.4813 55.5337 19.4714 53.6071 19.4714H50.0258Z" fill="white"/>
<path fill-rule="evenodd" clip-rule="evenodd" d="M33.249 25.796V28.8063H35.2067C35.2067 28.8063 35.2416 28.8024 35.3077 28.8024C35.3698 28.7985 35.4669 28.7907 35.5796 28.7868C35.7932 28.7635 36.069 28.7247 36.3409 28.6315C36.5856 28.5538 36.8225 28.4295 37.009 28.2469C37.0789 28.1731 37.1372 28.0993 37.1838 28.0255C37.3353 27.7847 37.3741 27.54 37.3819 27.404C37.3896 27.338 37.3896 27.3069 37.3896 27.3069V27.2331C37.3819 27.1749 37.3741 27.0622 37.3469 26.9418C37.3119 26.7981 37.242 26.635 37.1177 26.4796C37.0983 26.4524 37.0711 26.4252 37.0439 26.398C36.9896 26.3436 36.9313 26.2893 36.8691 26.2427C36.7604 26.165 36.64 26.0989 36.5079 26.0407C36.3292 25.963 36.1311 25.9086 35.9175 25.8659C35.8087 25.8465 35.6883 25.827 35.5718 25.8193C35.498 25.8076 35.4203 25.8076 35.3465 25.7999C35.2805 25.796 35.2067 25.796 35.1407 25.796H33.249Z" fill="white"/>
<path fill-rule="evenodd" clip-rule="evenodd" d="M33.249 21.2156V24.0705H34.1968C34.1968 24.0705 34.2589 24.0705 34.3405 24.0666C34.4065 24.0666 34.4881 24.0628 34.5541 24.055C34.7483 24.0433 35.0202 24.0161 35.2883 23.9423C35.3426 23.9268 35.3931 23.9074 35.4475 23.8919C35.6573 23.8142 35.8592 23.7093 36.0146 23.5539C36.1428 23.4296 36.2205 23.2898 36.2787 23.1577C36.3448 22.9946 36.372 22.8392 36.3797 22.7305C36.3875 22.6256 36.3875 22.5673 36.3875 22.5673V22.443C36.3758 22.3226 36.3525 22.1167 36.2554 21.9264C36.2088 21.8332 36.1428 21.74 36.0573 21.6545C35.9486 21.5535 35.8204 21.4681 35.6806 21.4059C35.4125 21.2894 35.1096 21.2428 34.8493 21.2273C34.7406 21.2195 34.6357 21.2156 34.5541 21.2156H33.249Z" fill="white"/>
<path fill-rule="evenodd" clip-rule="evenodd" d="M27 17.3273H43.275V32.6429H27V17.3273ZM31.2727 19.4714V30.5066H35.425C35.425 30.5066 37.4526 30.5571 38.5673 29.4423C39.4763 28.5334 39.4141 27.477 39.4141 27.477C39.4141 27.477 39.4762 26.3816 38.6334 25.5348C37.9148 24.8201 37.002 24.6259 37.002 24.6259C37.002 24.6259 37.4176 24.4355 37.7322 24.1131C37.8837 23.9655 38.4119 23.4877 38.4119 22.3263C38.4119 21.1571 37.6312 20.4813 37.6312 20.4813C37.6312 20.4813 36.7806 19.4714 34.8579 19.4714H31.2727Z" fill="white"/>
<path fill-rule="evenodd" clip-rule="evenodd" d="M28.8198 37.9975H29.9929C31.7524 37.9975 32.4632 38.72 32.4788 39.9086C32.4943 40.969 31.9389 41.9711 29.9929 41.9711H28.8198V37.9975ZM27.002 36.436V49.0987H28.8198V43.6025H29.5811C30.5133 43.6025 31.2669 43.9016 32.9449 46.5001L34.6151 49.0987H36.7864C35.9125 47.8946 35.5978 47.4673 35.054 46.5934C34.0907 45.0163 33.3877 43.8472 32.238 43.0859C33.5897 42.546 34.3549 41.4506 34.3549 39.9824C34.3549 37.7916 32.7584 36.436 30.1948 36.436H27.002Z" fill="white"/>
<path fill-rule="evenodd" clip-rule="evenodd" d="M42.7339 39.1499L44.7771 43.7333H40.8384L42.7339 39.1499ZM43.402 36.3649H42.1202L36.6784 49.0974H38.5351L40.1354 45.3686H45.519L47.2086 49.0974H49.0614L43.402 36.3649Z" fill="white"/>
<path fill-rule="evenodd" clip-rule="evenodd" d="M52.3949 38.0718H55.1916C58.7418 38.0718 60.3576 40.2276 60.3576 42.7679C60.3576 44.3294 59.4098 47.4678 55.2925 47.4678H52.3949V38.0718ZM50.5732 49.0992H55.5101C59.6895 49.0992 62.2298 46.019 62.2298 42.7679C62.2298 39.7809 60.1712 36.4366 55.4945 36.4366H50.5732V49.0992Z" fill="white"/>
<path fill-rule="evenodd" clip-rule="evenodd" d="M64.3276 36.4339H66.1455V49.0966H64.3276V36.4339Z" fill="white"/>
<path fill-rule="evenodd" clip-rule="evenodd" d="M70.119 42.7694C70.119 39.9844 72.2165 37.9452 75.0404 37.9452C77.8798 37.9452 79.9773 39.9844 79.9773 42.7694C79.9773 45.535 77.8798 47.5976 75.0404 47.5976C72.2165 47.5976 70.119 45.535 70.119 42.7694ZM68.243 42.7694C68.243 46.2031 70.8648 49.2639 75.0015 49.2639C79.2898 49.2639 81.8534 46.1837 81.8534 42.7694C81.8534 39.2425 79.2198 36.2711 75.0404 36.2711C70.9347 36.2711 68.243 39.262 68.243 42.7694Z" fill="white"/>
<path d="M154.651 70.9493L146.486 70.9454L146.509 81.2853L131.889 81.3047L131.87 72.0058C131.87 72.0058 131.854 70.9765 130.627 70.9338L109.718 70.9493L109.722 62.369C109.726 61.1183 110.343 59.2771 111.089 58.275L133.447 28.2964C134.196 27.2942 135.828 26.4746 137.078 26.4785L146.513 26.4824L146.494 58.9159L154.659 58.8965L154.651 70.9493ZM132.876 14.8491C110.712 14.8491 92.7475 32.8254 92.7475 54.9967C92.7475 77.1719 110.712 95.1443 132.876 95.1443C155.035 95.1443 173 77.1719 173 54.9967C173 32.8254 155.035 14.8491 132.876 14.8491Z" fill="white"/>
<path d="M133.12 49.8508C129.946 49.9169 127.418 52.5504 127.487 55.7238C127.561 58.4778 129.62 60.7423 132.312 61.2239L134.378 61.5929C133.842 65.2519 132.475 67.9903 129.399 70.2548C133.547 68.4137 136.728 64.4401 138.196 60.2334C139.669 56.019 138.833 49.7343 133.12 49.8508Z" fill="white"/>
</svg>
