<svg width="28" height="28" viewBox="0 0 28 28" fill="none" xmlns="http://www.w3.org/2000/svg">
<path d="M0 13.9997C0 16.7482 0.775385 19.3249 2.15385 21.4721H25.8462C27.1815 19.3249 28 16.7482 28 13.9997C28 11.2513 27.2246 8.67458 25.8462 6.52734H2.15385C0.775385 8.67458 0 11.2513 0 13.9997Z" fill="#F9F9F9"/>
<path d="M25.8892 6.52761C23.3908 2.61963 18.9969 0 14 0C9.00307 0 4.60923 2.61963 2.11076 6.52761H25.8892Z" fill="#ED4C5C"/>
<path d="M2.15385 21.4724C4.65232 25.3804 9.04616 28 14.0431 28C19.04 28 23.4339 25.3804 25.9323 21.4724H2.15385Z" fill="#ED4C5C"/>
<path d="M10.0369 20.0553C10.0369 20.0553 13.0954 18.0368 16.6277 19.8405V19.1105C16.6277 19.1105 13.6554 17.135 16.1539 16.8773C18.6954 16.5767 20.0739 17.908 20.0739 17.908V17.2638C20.0739 17.2638 15.7662 14.9878 19.4708 15.8467V15.2025C19.4708 15.2025 16.1539 14.043 18.1785 14.043C20.2031 14.043 19.04 14.043 19.04 14.043V13.6135C19.04 13.6135 15.6369 13.1411 18.48 12.9694V12.6258C18.48 12.6258 13.3539 10.2638 17.1877 11.1657V10.6933C17.1877 10.6933 15.3354 10.3068 16.7569 10.135C16.7569 10.135 16.0246 9.14728 14.7754 9.14728C13.5692 9.14728 13.7415 7.94482 13.7415 7.94482L12.1908 9.57673C12.1908 9.57673 13.2677 9.49084 11.5446 10.3497C11.5446 10.3497 13.0092 10.4786 9.73539 12.4111C9.73539 12.4111 10.9415 11.9387 10.9415 12.7546C10.9415 13.5276 8.7877 14.6013 8.7877 14.6013L8.96001 15.1166C8.96001 15.1166 10.4677 13.9571 10.3815 14.7301C10.2954 15.5031 7.96924 16.7485 7.96924 16.7485L8.18462 17.135C8.18462 17.135 10.08 16.0184 10.1662 16.4908C10.1662 16.4908 10.4677 16.8344 8.57232 17.4356L8.7877 17.8221C8.7877 17.8221 11.6308 16.4049 12.4062 17.4356C13.1815 18.4663 10.0369 19.5399 10.0369 19.5399V20.0553Z" fill="#83BF4F"/>
<path d="M13.0092 11.8958C13.2472 11.8958 13.44 11.7035 13.44 11.4663C13.44 11.2291 13.2472 11.0369 13.0092 11.0369C12.7713 11.0369 12.5785 11.2291 12.5785 11.4663C12.5785 11.7035 12.7713 11.8958 13.0092 11.8958Z" fill="#F9F9F9"/>
<path d="M14.6892 12.6257C14.9271 12.6257 15.12 12.4335 15.12 12.1963C15.12 11.9591 14.9271 11.7668 14.6892 11.7668C14.4513 11.7668 14.2585 11.9591 14.2585 12.1963C14.2585 12.4335 14.4513 12.6257 14.6892 12.6257Z" fill="#F9F9F9"/>
<path d="M11.2 14.8589C11.4379 14.8589 11.6308 14.6666 11.6308 14.4294C11.6308 14.1923 11.4379 14 11.2 14C10.9621 14 10.7692 14.1923 10.7692 14.4294C10.7692 14.6666 10.9621 14.8589 11.2 14.8589Z" fill="#F9F9F9"/>
<path d="M15.8954 15.2886C16.1333 15.2886 16.3262 15.0963 16.3262 14.8591C16.3262 14.622 16.1333 14.4297 15.8954 14.4297C15.6575 14.4297 15.4646 14.622 15.4646 14.8591C15.4646 15.0963 15.6575 15.2886 15.8954 15.2886Z" fill="#F9F9F9"/>
<path d="M17.2308 15.6748C17.4687 15.6748 17.6615 15.4825 17.6615 15.2454C17.6615 15.0082 17.4687 14.8159 17.2308 14.8159C16.9929 14.8159 16.8 15.0082 16.8 15.2454C16.8 15.4825 16.9929 15.6748 17.2308 15.6748Z" fill="#F9F9F9"/>
<path d="M11.7169 12.9265C11.9548 12.9265 12.1477 12.7343 12.1477 12.4971C12.1477 12.2599 11.9548 12.0676 11.7169 12.0676C11.479 12.0676 11.2862 12.2599 11.2862 12.4971C11.2862 12.7343 11.479 12.9265 11.7169 12.9265Z" fill="#F9F9F9"/>
<path d="M14.1292 14.4295C14.3671 14.4295 14.56 14.2372 14.56 14C14.56 13.7628 14.3671 13.5706 14.1292 13.5706C13.8913 13.5706 13.6985 13.7628 13.6985 14C13.6985 14.2372 13.8913 14.4295 14.1292 14.4295Z" fill="#F9F9F9"/>
</svg>
